<svg width="6" height="8" viewBox="0 0 6 8" fill="none" xmlns="http://www.w3.org/2000/svg">
<path d="M0.292893 1.70711C-0.097631 1.31658 -0.097631 0.683417 0.292893 0.292893C0.683418 -0.0976311 1.31658 -0.0976311 1.70711 0.292893L0.292893 1.70711ZM4 4L4.70711 3.29289L5.41421 4L4.70711 4.70711L4 4ZM1.70711 7.70711C1.31658 8.09763 0.683418 8.09763 0.292893 7.70711C-0.097631 7.31658 -0.097631 6.68342 0.292893 6.29289L1.70711 7.70711ZM1.70711 0.292893L4.70711 3.29289L3.29289 4.70711L0.292893 1.70711L1.70711 0.292893ZM4.70711 4.70711L1.70711 7.70711L0.292893 6.29289L3.29289 3.29289L4.70711 4.70711Z" fill="white"/>
</svg>
