<svg width="9" height="16" viewBox="0 0 9 16" fill="none" xmlns="http://www.w3.org/2000/svg">
<path d="M0.4084 2.4251C-0.133087 1.87567 -0.133087 0.985198 0.390351 0.416815C0.661095 0.132623 1.00404 0 1.36503 0C1.70797 0 2.05091 0.132623 2.30361 0.416815L8.60291 6.99112C8.8556 7.25637 9 7.61634 9 7.99526C9 8.37419 8.8556 8.73416 8.60291 8.99941L2.30361 15.5737C1.78017 16.1421 0.931838 16.1421 0.390351 15.5737C-0.133087 15.0243 -0.133087 14.1149 0.4084 13.5654L5.73303 7.99526L0.4084 2.4251Z" fill="#33478D"/>
<path d="M0.480686 2.356L0.480695 2.356L0.479625 2.35491C-0.0228451 1.84506 -0.0247306 1.01581 0.463337 0.48518C0.71415 0.222233 1.03023 0.1 1.36503 0.1C1.68194 0.1 1.99677 0.222231 2.22888 0.483263L2.22882 0.483309L2.2314 0.485999L8.53051 7.0601C8.53053 7.06012 8.53055 7.06014 8.53057 7.06017C8.76524 7.30653 8.9 7.64167 8.9 7.99526C8.9 8.34882 8.76527 8.68393 8.53065 8.93028C8.5306 8.93033 8.53055 8.93038 8.53051 8.93043L2.2314 15.5045L2.23139 15.5045L2.23005 15.506C1.74688 16.0306 0.965516 16.0325 0.462754 15.5047C-0.0237282 14.9941 -0.0236599 14.1463 0.479625 13.6356L0.479633 13.6356L0.480686 13.6345L5.80531 8.06436L5.87137 7.99526L5.80531 7.92616L0.480686 2.356Z" stroke="url(#paint0_linear_112_87)" stroke-opacity="0.5" stroke-width="0.2"/>
<defs>
<linearGradient id="paint0_linear_112_87" x1="0.969497" y1="5.36723" x2="8.6119" y2="5.39096" gradientUnits="userSpaceOnUse">
<stop stop-color="white"/>
<stop offset="1" stop-color="white" stop-opacity="0"/>
</linearGradient>
</defs>
</svg>
