<svg width="43" height="40" viewBox="0 0 43 40" fill="none" xmlns="http://www.w3.org/2000/svg">
<g filter="url(#filter0_b_6_195)">
<path d="M1 18.5C1 28.1425 8.84 36 18.5 36C28.1425 36 36 28.1425 36 18.5C36 8.84 28.1425 1 18.5 1C9.00373 1 1.26628 8.57649 1.00673 18.0104L1 18.5Z" fill="url(#paint0_linear_6_195)" fill-opacity="0.8"/>
<path d="M0.500046 18.4931H0.5V18.5C0.5 28.4183 8.56353 36.5 18.5 36.5C28.4186 36.5 36.5 28.4186 36.5 18.5C36.5 8.56353 28.4183 0.5 18.5 0.5C8.73217 0.5 0.773899 8.29283 0.506916 17.9967H0.506866L0.506771 18.0035L0.500046 18.4931Z" stroke="url(#paint1_linear_6_195)" stroke-linecap="round" stroke-linejoin="round"/>
</g>
<g filter="url(#filter1_bd_6_195)">
<path d="M16.9483 25C16.4997 25.0024 16.0512 24.8321 15.7054 24.4819L11.2572 19.9729C10.5704 19.2726 10.5634 18.1357 11.2432 17.4306C11.9231 16.7231 13.0328 16.7159 13.722 17.4138L16.9226 20.6565L24.7373 12.5355C25.4195 11.828 26.5292 11.8208 27.2161 12.5187C27.9053 13.219 27.9123 14.3583 27.2324 15.061L18.1842 24.4651C17.8431 24.8201 17.3969 24.9976 16.9483 25Z" fill="url(#paint2_linear_6_195)"/>
<path d="M16.9947 20.7258L24.8093 12.6049L24.8094 12.6048C25.4527 11.9376 26.4976 11.9312 27.1448 12.5888C27.7962 13.2508 27.8024 14.328 27.1606 14.9915L27.1604 14.9917L18.1121 24.3958L18.1121 24.3958C17.7902 24.7308 17.37 24.8977 16.9478 24.9C16.5252 24.9022 16.1028 24.742 15.7766 24.4117C15.7766 24.4117 15.7766 24.4117 15.7766 24.4117L11.3286 19.9029C11.3286 19.9029 11.3285 19.9028 11.3285 19.9028C10.6795 19.2409 10.6731 18.166 11.3152 17.5L11.3153 17.4999C11.9562 16.833 13.0011 16.8262 13.6508 17.4841L16.8514 20.7267L16.9235 20.7997L16.9947 20.7258Z" stroke="url(#paint3_linear_6_195)" stroke-opacity="0.5" stroke-width="0.2"/>
</g>
<defs>
<filter id="filter0_b_6_195" x="-24" y="-24" width="85" height="85" filterUnits="userSpaceOnUse" color-interpolation-filters="sRGB">
<feFlood flood-opacity="0" result="BackgroundImageFix"/>
<feGaussianBlur in="BackgroundImage" stdDeviation="12"/>
<feComposite in2="SourceAlpha" operator="in" result="effect1_backgroundBlur_6_195"/>
<feBlend mode="normal" in="SourceGraphic" in2="effect1_backgroundBlur_6_195" result="shape"/>
</filter>
<filter id="filter1_bd_6_195" x="-4.26233" y="-3" width="47" height="43" filterUnits="userSpaceOnUse" color-interpolation-filters="sRGB">
<feFlood flood-opacity="0" result="BackgroundImageFix"/>
<feGaussianBlur in="BackgroundImage" stdDeviation="7.5"/>
<feComposite in2="SourceAlpha" operator="in" result="effect1_backgroundBlur_6_195"/>
<feColorMatrix in="SourceAlpha" type="matrix" values="0 0 0 0 0 0 0 0 0 0 0 0 0 0 0 0 0 0 127 0" result="hardAlpha"/>
<feOffset dx="5" dy="5"/>
<feGaussianBlur stdDeviation="5"/>
<feColorMatrix type="matrix" values="0 0 0 0 0.589881 0 0 0 0 1 0 0 0 0 0.5125 0 0 0 0.5 0"/>
<feBlend mode="normal" in2="effect1_backgroundBlur_6_195" result="effect2_dropShadow_6_195"/>
<feBlend mode="normal" in="SourceGraphic" in2="effect2_dropShadow_6_195" result="shape"/>
</filter>
<linearGradient id="paint0_linear_6_195" x1="36" y1="18.5" x2="1" y2="18.5" gradientUnits="userSpaceOnUse">
<stop stop-color="#76AAF8"/>
<stop offset="1" stop-color="#4165E3"/>
</linearGradient>
<linearGradient id="paint1_linear_6_195" x1="31.9225" y1="6.57143" x2="4.27082" y2="28.8977" gradientUnits="userSpaceOnUse">
<stop stop-color="white" stop-opacity="0.25"/>
<stop offset="1" stop-color="white" stop-opacity="0"/>
</linearGradient>
<linearGradient id="paint2_linear_6_195" x1="26.5324" y1="14.3475" x2="7.61026" y2="15.1543" gradientUnits="userSpaceOnUse">
<stop stop-color="white"/>
<stop offset="1" stop-color="white" stop-opacity="0.2"/>
</linearGradient>
<linearGradient id="paint3_linear_6_195" x1="12.5689" y1="16.3609" x2="27.004" y2="16.4651" gradientUnits="userSpaceOnUse">
<stop stop-color="white"/>
<stop offset="1" stop-color="white" stop-opacity="0"/>
</linearGradient>
</defs>
</svg>
