<svg width="38" height="38" viewBox="0 0 38 38" fill="none" xmlns="http://www.w3.org/2000/svg">
<g filter="url(#filter0_b_402_58)">
<rect width="30" height="30" rx="15" fill="white"/>
<rect width="30" height="30" rx="15" fill="#FF749F" fill-opacity="0.7"/>
</g>
<g filter="url(#filter1_bd_402_58)">
<path d="M22.2791 19.3008C23.1 20.1209 23.1 21.4476 22.2791 22.2654C21.8687 22.6754 21.3375 22.8949 20.7822 22.8949C20.2511 22.8949 19.7199 22.702 19.3095 22.2654L15.0121 17.9982L10.7146 22.2654C10.3042 22.6754 9.77306 22.8949 9.21777 22.8949C8.68662 22.8949 8.13134 22.6754 7.72091 22.2654C6.90005 21.4476 6.90005 20.1209 7.72091 19.2767L12.0183 15.0071L7.72091 10.7111C6.90005 9.89334 6.90005 8.54252 7.72091 7.72238C8.54177 6.89983 9.86963 6.89983 10.7146 7.72238L15.0121 12.0136L19.2854 7.72238C20.1304 6.89983 21.4582 6.89983 22.2791 7.72238C23.1 8.54252 23.1 9.89334 22.2791 10.7111L17.9817 15.0071L22.2791 19.3008Z" fill="url(#paint0_linear_402_58)"/>
<path d="M22.1379 22.1237L22.1377 22.1239C21.764 22.4973 21.2833 22.6949 20.7822 22.6949C20.3007 22.6949 19.8242 22.5209 19.4552 22.1284L19.4553 22.1283L19.4504 22.1234L15.153 17.8563L15.0121 17.7164L14.8712 17.8563L10.5737 22.1234L10.5733 22.1239C10.1995 22.4973 9.71889 22.6949 9.21777 22.6949C8.73959 22.6949 8.23516 22.4964 7.86227 22.1239L7.86206 22.1237C7.12128 21.3857 7.11769 20.1853 7.86314 19.4173L12.1593 15.149L12.3017 15.0076L12.1597 14.8657L7.86231 10.5696L7.86206 10.5694C7.11978 9.82993 7.11948 8.606 7.86227 7.86387L7.86247 7.86366C8.6038 7.12081 9.80569 7.11761 10.5742 7.86482L14.8708 12.1552L15.0125 12.2967L15.1538 12.1548L19.426 7.86462C20.1945 7.11761 21.3963 7.12088 22.1375 7.86366L22.1377 7.86387C22.8805 8.606 22.8802 9.82993 22.1379 10.5694L22.1377 10.5696L17.8403 14.8657L17.6987 15.0072L17.8403 15.1486L22.1377 19.4423C22.8805 20.1844 22.8802 21.3842 22.1379 22.1237Z" stroke="url(#paint1_linear_402_58)" stroke-width="0.4"/>
</g>
<defs>
<filter id="filter0_b_402_58" x="-24" y="-24" width="78" height="78" filterUnits="userSpaceOnUse" color-interpolation-filters="sRGB">
<feFlood flood-opacity="0" result="BackgroundImageFix"/>
<feGaussianBlur in="BackgroundImage" stdDeviation="12"/>
<feComposite in2="SourceAlpha" operator="in" result="effect1_backgroundBlur_402_58"/>
<feBlend mode="normal" in="SourceGraphic" in2="effect1_backgroundBlur_402_58" result="shape"/>
</filter>
<filter id="filter1_bd_402_58" x="-7.89474" y="-7.89453" width="45.7895" height="45.7896" filterUnits="userSpaceOnUse" color-interpolation-filters="sRGB">
<feFlood flood-opacity="0" result="BackgroundImageFix"/>
<feGaussianBlur in="BackgroundImage" stdDeviation="7.5"/>
<feComposite in2="SourceAlpha" operator="in" result="effect1_backgroundBlur_402_58"/>
<feColorMatrix in="SourceAlpha" type="matrix" values="0 0 0 0 0 0 0 0 0 0 0 0 0 0 0 0 0 0 127 0" result="hardAlpha"/>
<feOffset dx="5" dy="5"/>
<feGaussianBlur stdDeviation="5"/>
<feColorMatrix type="matrix" values="0 0 0 0 1 0 0 0 0 0.321569 0 0 0 0 0.54902 0 0 0 0.5 0"/>
<feBlend mode="normal" in2="effect1_backgroundBlur_402_58" result="effect2_dropShadow_402_58"/>
<feBlend mode="normal" in="SourceGraphic" in2="effect2_dropShadow_402_58" result="shape"/>
</filter>
<linearGradient id="paint0_linear_402_58" x1="21.7753" y1="9.95673" x2="4.1873" y2="10.5302" gradientUnits="userSpaceOnUse">
<stop stop-color="white" stop-opacity="0.87"/>
<stop offset="1" stop-color="white" stop-opacity="0.58"/>
</linearGradient>
<linearGradient id="paint1_linear_402_58" x1="9.61869" y1="8.94496" x2="19.6907" y2="21.4194" gradientUnits="userSpaceOnUse">
<stop stop-color="white" stop-opacity="0.4"/>
<stop offset="1" stop-color="white" stop-opacity="0.15"/>
</linearGradient>
</defs>
</svg>
