<svg width="17" height="21" viewBox="0 0 17 21" fill="none" xmlns="http://www.w3.org/2000/svg">
<path fill-rule="evenodd" clip-rule="evenodd" d="M12.7468 11.8056C13.5753 10.7721 14.0696 9.46387 14.0696 8.03478C14.0696 4.70186 11.3677 2 8.03478 2C4.70186 2 2 4.70186 2 8.03478C2 9.46375 2.49416 10.7718 3.32253 11.8053L3.32849 11.8127C3.50387 12.0312 3.66624 12.2613 3.83493 12.4849C4.12792 12.8734 4.54107 13.4189 5.0211 14.0462C5.91565 15.2153 7.03309 16.6565 8.03549 17.8938C9.04104 16.6539 10.161 15.2104 11.0573 14.0398C11.5382 13.4117 11.952 12.8657 12.2454 12.4769C12.4133 12.2545 12.5726 12.023 12.7468 11.8056ZM14.3102 13.0589C14.3102 13.0589 14.3085 13.0611 14.3073 13.0627C14.2561 13.1312 13.7858 13.7595 13.1044 14.6544C12.0935 15.9819 10.6179 17.8961 9.35627 19.4393C8.66612 20.2834 7.4037 20.2831 6.71396 19.4386C4.55761 16.7985 1.76876 13.0646 1.76876 13.0646L1.76226 13.0565C0.659574 11.681 0 9.9349 0 8.03478C0 3.5973 3.59729 0 8.03478 0C12.4723 0 16.0696 3.5973 16.0696 8.03478C16.0696 9.21703 15.8142 10.3396 15.3557 11.3505C15.0783 11.962 14.7265 12.5326 14.312 13.0507L14.309 13.0543L14.3073 13.0565H14.312L14.3102 13.0589Z" fill="white"/>
<path fill-rule="evenodd" clip-rule="evenodd" d="M8.03467 9C8.58695 9 9.03467 8.55229 9.03467 8C9.03467 7.44771 8.58695 7 8.03467 7C7.48238 7 7.03467 7.44771 7.03467 8C7.03467 8.55229 7.48238 9 8.03467 9ZM11.0347 8C11.0347 9.65685 9.69152 11 8.03467 11C6.37781 11 5.03467 9.65685 5.03467 8C5.03467 6.34315 6.37781 5 8.03467 5C9.69152 5 11.0347 6.34315 11.0347 8Z" fill="white"/>
</svg>
