<svg width="17" height="21" viewBox="0 0 17 21" fill="none" xmlns="http://www.w3.org/2000/svg">
<path fill-rule="evenodd" clip-rule="evenodd" d="M6.11256 0.77525C7.23383 -0.180291 8.88299 -0.180292 10.0043 0.77525L10.0746 0.835175C10.5551 1.24465 11.1525 1.49211 11.7818 1.54233L11.8739 1.54967C13.3424 1.66686 14.5086 2.833 14.6257 4.30153L14.6331 4.39362C14.6833 5.02292 14.9308 5.62034 15.3402 6.10083L15.4002 6.17115C16.3557 7.29242 16.3557 8.94159 15.4002 10.0629L15.3402 10.1332C14.9308 10.6137 14.6833 11.2111 14.6331 11.8404L14.6257 11.9325C14.5426 12.9746 13.9312 13.8644 13.0584 14.3352V19.273C13.0584 19.9428 12.4127 20.4233 11.7711 20.2308L8.05841 19.117L4.34576 20.2308C3.70415 20.4233 3.05841 19.9428 3.05841 19.273V14.3352C2.18561 13.8644 1.57424 12.9746 1.49108 11.9325L1.48373 11.8404C1.43351 11.2111 1.18605 10.6137 0.776582 10.1332L0.716656 10.0629C-0.238885 8.94159 -0.238886 7.29243 0.716656 6.17115L0.776582 6.10083C1.18605 5.62034 1.43351 5.02292 1.48373 4.39362L1.49108 4.30153C1.60827 2.833 2.7744 1.66686 4.24293 1.54967L4.33503 1.54233C4.96433 1.49211 5.56175 1.24465 6.04224 0.835176L6.11256 0.77525ZM8.70703 2.29748L8.77735 2.3574C9.57817 3.03986 10.5739 3.45229 11.6227 3.53599L11.7148 3.54334C12.2043 3.5824 12.593 3.97111 12.6321 4.46062L12.6394 4.55272C12.7231 5.60155 13.1356 6.59725 13.818 7.39807L13.8779 7.46839C14.1965 7.84215 14.1965 8.39187 13.8779 8.76562L13.818 8.83594C13.1356 9.63676 12.7231 10.6325 12.6394 11.6813L12.6321 11.7734C12.593 12.2629 12.2043 12.6516 11.7148 12.6907L11.6227 12.698C10.5739 12.7817 9.57817 13.1942 8.77735 13.8766L8.70703 13.9365C8.33327 14.255 7.78355 14.255 7.40979 13.9365L7.33948 13.8766C6.53866 13.1942 5.54296 12.7817 4.49412 12.698L4.40203 12.6907C3.91252 12.6516 3.52381 12.2629 3.48474 11.7734L3.47739 11.6813C3.3937 10.6325 2.98126 9.63676 2.29881 8.83594L2.23889 8.76562C1.92037 8.39187 1.92037 7.84215 2.23889 7.46839L2.29881 7.39807C2.98126 6.59725 3.3937 5.60155 3.47739 4.55272L3.48474 4.46062C3.52381 3.97111 3.91252 3.5824 4.40203 3.54334L4.49412 3.53599C5.54296 3.45229 6.53866 3.03986 7.33947 2.35741L7.40979 2.29748C7.78355 1.97897 8.33327 1.97897 8.70703 2.29748ZM5.05841 14.8406V17.9289L7.48372 17.2013C7.85859 17.0889 8.25823 17.0889 8.63311 17.2013L11.0584 17.9289V14.8406C10.7001 14.9619 10.3659 15.1506 10.0746 15.3988L10.0043 15.4588C8.88299 16.4143 7.23383 16.4143 6.11256 15.4588L6.04224 15.3988C5.75095 15.1506 5.41669 14.9619 5.05841 14.8406Z" fill="white"/>
<path fill-rule="evenodd" clip-rule="evenodd" d="M8.05859 9.11719C8.61088 9.11719 9.05859 8.66947 9.05859 8.11719C9.05859 7.5649 8.61088 7.11719 8.05859 7.11719C7.50631 7.11719 7.05859 7.5649 7.05859 8.11719C7.05859 8.66947 7.50631 9.11719 8.05859 9.11719ZM8.05859 11.1172C9.71545 11.1172 11.0586 9.77404 11.0586 8.11719C11.0586 6.46033 9.71545 5.11719 8.05859 5.11719C6.40174 5.11719 5.05859 6.46033 5.05859 8.11719C5.05859 9.77404 6.40174 11.1172 8.05859 11.1172Z" fill="white"/>
</svg>
