<svg width="36" height="36" viewBox="0 0 36 36" fill="none" xmlns="http://www.w3.org/2000/svg">
<circle cx="18" cy="18" r="18" fill="#35AAE7"/>
<path fill-rule="evenodd" clip-rule="evenodd" d="M9.29147 17.3414L13.0954 18.7595L14.5676 23.49C14.6619 23.7932 15.0327 23.9052 15.2789 23.7041L17.3992 21.9779C17.6214 21.7961 17.938 21.7874 18.1703 21.9557L21.9945 24.7305C22.2579 24.9211 22.631 24.7775 22.6969 24.4595L25.4986 10.9936C25.5706 10.6459 25.2291 10.357 24.8981 10.485L9.28707 16.5031C8.90192 16.6516 8.90525 17.1967 9.29147 17.3414ZM14.3304 18.0041L21.7646 13.4288C21.8981 13.3471 22.0356 13.5284 21.9208 13.6336L15.7855 19.333C15.57 19.5335 15.4308 19.802 15.3914 20.0928L15.1825 21.6408C15.1547 21.8474 14.8642 21.8684 14.8072 21.6674L14.0034 18.8461C13.9114 18.5238 14.0455 18.1804 14.3304 18.0041Z" fill="white"/>
</svg>
