<svg width="20" height="18" viewBox="0 0 20 18" fill="none" xmlns="http://www.w3.org/2000/svg">
<path d="M12.4995 7.96943C14.4728 7.72353 15.9998 6.04026 15.9998 4.00034C15.9998 1.96043 14.4728 0.27716 12.4995 0.03125C13.4332 1.08899 13.9998 2.4785 13.9998 4.00034C13.9998 5.52218 13.4332 6.91169 12.4995 7.96943Z" fill="white"/>
<path d="M18 16.9998C18 17.5521 18.4477 17.9998 19 17.9998C19.5523 17.9998 20 17.5521 20 16.9998V14.9998C20 12.3397 17.9227 10.1648 15.3018 10.0088C16.3539 10.9405 17.1587 12.1452 17.6055 13.5118C17.8565 13.9504 18 14.4583 18 14.9998V16.9998Z" fill="white"/>
<path fill-rule="evenodd" clip-rule="evenodd" d="M5 12C3.34315 12 2 13.3431 2 15V17C2 17.5523 1.55228 18 1 18C0.447715 18 0 17.5523 0 17V15C0 12.2386 2.23858 10 5 10H11C13.7614 10 16 12.2386 16 15V17C16 17.5523 15.5523 18 15 18C14.4477 18 14 17.5523 14 17V15C14 13.3431 12.6569 12 11 12H5Z" fill="white"/>
<path fill-rule="evenodd" clip-rule="evenodd" d="M8 2C6.89543 2 6 2.89543 6 4C6 5.10457 6.89543 6 8 6C9.10457 6 10 5.10457 10 4C10 2.89543 9.10457 2 8 2ZM4 4C4 1.79086 5.79086 0 8 0C10.2091 0 12 1.79086 12 4C12 6.20914 10.2091 8 8 8C5.79086 8 4 6.20914 4 4Z" fill="white"/>
</svg>
