<svg width="50" height="50" viewBox="0 0 50 50" fill="none" xmlns="http://www.w3.org/2000/svg">
<path fill-rule="evenodd" clip-rule="evenodd" d="M25 0C38.8071 0 50 11.1931 50 25C50 38.8069 38.8071 50 25 50C11.1929 50 0 38.8069 0 25C0 11.1931 11.1929 0 25 0Z" fill="#5382B6"/>
<path fill-rule="evenodd" clip-rule="evenodd" d="M32.9 28.3326C33.7124 29.1622 34.5702 29.9432 35.2988 30.8569C35.6208 31.2638 35.9258 31.6805 36.159 32.1527C36.4893 32.8229 36.1899 33.5604 35.6159 33.6L32.0472 33.599C31.1265 33.6782 30.3925 33.2921 29.775 32.6318C29.2808 32.1062 28.8232 31.5459 28.3482 30.9995C28.1534 30.7787 27.9496 30.5698 27.7061 30.4035C27.2189 30.0739 26.7959 30.1748 26.5174 30.7074C26.2339 31.2469 26.1696 31.8448 26.1418 32.4467C26.1034 33.3257 25.8496 33.5574 25.0053 33.599C23.2013 33.6861 21.489 33.4 19.8987 32.4497C18.4965 31.6102 17.4091 30.4253 16.4627 29.085C14.6198 26.4716 13.2085 23.6018 11.9403 20.6509C11.6548 19.9857 11.8637 19.6293 12.5647 19.6174C13.7291 19.5947 14.893 19.5956 16.0586 19.6154C16.5319 19.6224 16.8451 19.9075 17.0279 20.3767C17.6577 21.9952 18.4284 23.5355 19.3958 24.9669C19.6537 25.346 19.9164 25.7252 20.2903 25.9935C20.7042 26.2904 21.0193 26.1924 21.2139 25.7093C21.3377 25.4035 21.3917 25.0748 21.4197 24.7462C21.5118 23.6206 21.524 22.4951 21.3621 21.3725C21.2628 20.6707 20.8855 20.2183 20.2169 20.0847C19.8759 20.0183 19.9269 19.8837 20.092 19.6818C20.3789 19.3303 20.6487 19.1116 21.1865 19.1116H25.2197C25.8547 19.2412 25.9957 19.5402 26.0827 20.2084L26.0861 24.8956C26.0792 25.155 26.2097 25.9222 26.6551 26.0934C27.0116 26.2172 27.2467 25.9162 27.4607 25.6787C28.4264 24.6086 29.1156 23.3395 29.7314 22.0279C30.0046 21.4527 30.2394 20.8528 30.4673 20.2549C30.636 19.8095 30.9006 19.5917 31.3789 19.6016L35.2607 19.6055C35.3758 19.6055 35.4922 19.6055 35.6039 19.6253C36.2578 19.7441 36.437 20.0381 36.2351 20.7043C35.9167 21.7527 35.2976 22.6277 34.6919 23.5068C34.0445 24.4423 33.3521 25.347 32.7102 26.2904C32.1203 27.1516 32.1674 27.5852 32.9 28.3326Z" fill="white"/>
</svg>
