<svg width="19" height="19" viewBox="0 0 19 19" fill="none" xmlns="http://www.w3.org/2000/svg">
<circle cx="9.50012" cy="9.5" r="9.5" fill="#3FBF50"/>
<path fill-rule="evenodd" clip-rule="evenodd" d="M15.0001 9.35805C15.0001 12.3184 12.5826 14.7161 9.60018 14.7161C8.65332 14.7161 7.76367 14.4751 6.98974 14.0496L4.00009 15L4.97481 12.1254C4.48316 11.318 4.19994 10.3715 4.19994 9.35805C4.19994 6.39903 6.6176 4 9.60018 4C12.5828 4 15.0001 6.39903 15.0001 9.35805ZM9.60018 4.85424C7.09642 4.85424 5.06 6.87456 5.06 9.35805C5.06 10.3442 5.38133 11.2569 5.92484 11.9994L5.35758 13.6728L7.10236 13.1174C7.81912 13.589 8.67787 13.8632 9.60018 13.8632C12.1034 13.8632 14.1401 11.8429 14.1401 9.35805C14.1401 6.87456 12.1035 4.85424 9.60018 4.85424ZM12.3269 10.5923C12.2935 10.5371 12.2054 10.504 12.0732 10.439C11.9407 10.3741 11.2897 10.0551 11.1687 10.0116C11.0473 9.9687 10.9589 9.94596 10.8707 10.0778C10.7826 10.2097 10.5288 10.504 10.4514 10.5923C10.3743 10.6807 10.2971 10.6904 10.1646 10.6248C10.0324 10.5599 9.60593 10.4208 9.1003 9.97325C8.7068 9.6257 8.44114 9.19629 8.36391 9.06443C8.28678 8.93256 8.35587 8.86239 8.42201 8.79678C8.48157 8.73766 8.55446 8.64347 8.62066 8.56682C8.68698 8.48951 8.70896 8.43494 8.75286 8.34725C8.7972 8.25955 8.77502 8.18354 8.74179 8.11728C8.70883 8.05167 8.44379 7.4053 8.33364 7.14221C8.22338 6.87911 8.1132 6.92328 8.0359 6.92328C7.95878 6.92328 7.87035 6.91159 7.78205 6.91159C7.69394 6.91159 7.55038 6.94537 7.42904 7.07659C7.30778 7.20911 6.96593 7.52613 6.96593 8.17185C6.96593 8.81757 7.43998 9.44251 7.5064 9.5302C7.57255 9.6179 8.42183 10.9866 9.76743 11.5141C11.1135 12.0377 11.1135 11.863 11.3561 11.8422C11.5986 11.8195 12.139 11.5232 12.2497 11.2179C12.3599 10.91 12.3599 10.6469 12.3269 10.5923Z" fill="white"/>
</svg>
