<svg width="50" height="50" viewBox="0 0 50 50" fill="none" xmlns="http://www.w3.org/2000/svg">
<path d="M25.0063 0H24.9937C11.2094 0 0 11.2125 0 25C0 30.4688 1.7625 35.5375 4.75938 39.6531L1.64375 48.9406L11.2531 45.8688C15.2063 48.4875 19.9219 50 25.0063 50C38.7906 50 50 38.7844 50 25C50 11.2156 38.7906 0 25.0063 0Z" fill="#4CAF50"/>
<path d="M39.5533 35.3033C38.9502 37.0064 36.5565 38.4189 34.6471 38.8314C33.3408 39.1096 31.6346 39.3314 25.8908 36.9502C18.544 33.9064 13.8127 26.4408 13.444 25.9564C13.0908 25.4721 10.4752 22.0033 10.4752 18.4158C10.4752 14.8283 12.2971 13.0814 13.0315 12.3314C13.6346 11.7158 14.6315 11.4346 15.5877 11.4346C15.8971 11.4346 16.1752 11.4502 16.4252 11.4627C17.1596 11.4939 17.5283 11.5377 18.0127 12.6971C18.6158 14.1502 20.0846 17.7377 20.2596 18.1064C20.4377 18.4752 20.6158 18.9752 20.3658 19.4596C20.1315 19.9596 19.9252 20.1814 19.5565 20.6064C19.1877 21.0314 18.8377 21.3564 18.469 21.8127C18.1315 22.2096 17.7502 22.6346 18.1752 23.3689C18.6002 24.0877 20.069 26.4846 22.2315 28.4096C25.0221 30.8939 27.2846 31.6877 28.094 32.0252C28.6971 32.2752 29.4158 32.2158 29.8565 31.7471C30.4158 31.1439 31.1065 30.1439 31.8096 29.1596C32.3096 28.4533 32.9408 28.3658 33.6033 28.6158C34.2783 28.8502 37.8502 30.6158 38.5846 30.9814C39.319 31.3502 39.8033 31.5252 39.9815 31.8346C40.1565 32.1439 40.1565 33.5971 39.5533 35.3033Z" fill="#FAFAFA"/>
</svg>
