<svg width="16" height="15" viewBox="0 0 16 15" fill="none" xmlns="http://www.w3.org/2000/svg">
<path fill-rule="evenodd" clip-rule="evenodd" d="M7.5 0C11.6 0 15 3.4 15 7.5C15 11.6 11.6 15 7.5 15C3.4 15 0 11.6 0 7.5C0 3.4 3.4 0 7.5 0Z" fill="white"/>
<path d="M4.14463 7.59951C3.75908 7.19951 3.75908 6.59951 4.14463 6.19951C4.53017 5.79951 5.10848 5.79951 5.49402 6.19951L7.22896 8.09951L14.3615 0.799512C14.747 0.399512 15.3253 0.399512 15.7109 0.799512C16.0964 1.19951 16.0964 1.79951 15.7109 2.19951L7.90366 10.1995C7.51812 10.5995 6.93981 10.5995 6.55426 10.1995L4.14463 7.59951Z" fill="#E20613"/>
</svg>
