<svg width="40" height="40" viewBox="0 0 40 40" fill="none" xmlns="http://www.w3.org/2000/svg">
<path fill-rule="evenodd" clip-rule="evenodd" d="M19.9998 3.18994C29.3101 3.18994 36.8101 10.6899 36.8101 20.0003C36.8101 29.3106 29.3101 36.8106 19.9998 36.8106C10.6895 36.8106 3.18945 29.2244 3.18945 20.0003C3.18945 10.7761 10.6895 3.18994 19.9998 3.18994Z" fill="white"/>
<path d="M20 0C31.0345 0 40 8.96552 40 20C40 31.0345 31.0345 40 20 40C8.96552 40 0 31.0345 0 20C0 8.96552 8.96552 0 20 0ZM19.6552 27.7586H21.2931C21.2931 27.7586 21.8103 27.6724 22.069 27.4138C22.3276 27.1552 22.3276 26.7241 22.3276 26.7241C22.3276 26.7241 22.3276 24.569 23.2759 24.2241C24.3103 23.8793 25.6034 26.3793 26.8966 27.2414C27.931 27.931 28.7069 27.7586 28.7069 27.7586L32.3276 27.6724C32.3276 27.6724 34.2241 27.5862 33.3621 26.0345C33.2759 25.9483 32.8448 24.9138 30.6034 22.931C28.2759 20.7759 28.6207 21.1207 31.3793 17.5C33.0172 15.2586 33.7069 13.8793 33.5345 13.2759C33.3621 12.7586 32.069 12.8448 32.069 12.8448H27.931C27.931 12.8448 27.5862 12.8448 27.4138 12.931C27.1552 13.1034 27.069 13.3621 27.069 13.3621C27.069 13.3621 26.3793 15.0862 25.5172 16.5517C23.7069 19.6552 22.931 19.8276 22.6724 19.6552C21.9828 19.2241 22.1552 17.8448 22.1552 16.8966C22.1552 13.8793 22.5862 12.5862 21.2931 12.3276C20.8621 12.2414 20.5172 12.1552 19.3966 12.1552C17.931 12.1552 16.7241 12.1552 15.9483 12.5C15.5172 12.7586 15.0862 13.2759 15.3448 13.2759C15.6034 13.2759 16.2069 13.4483 16.5517 13.8793C16.9828 14.4828 16.9828 15.7759 16.9828 15.7759C16.9828 15.7759 17.2414 19.3103 16.3793 19.7414C15.8621 20.0862 15.0862 19.3966 13.4483 16.6379C12.5862 15.1724 11.9828 13.6207 11.9828 13.6207C11.9828 13.6207 11.8966 13.3621 11.6379 13.1897C11.3793 13.0172 11.0345 12.931 11.0345 12.931H7.15517C7.15517 12.931 6.55172 12.931 6.37931 13.1897C6.2069 13.4483 6.37931 13.8793 6.37931 13.8793C6.37931 13.8793 9.48276 21.0345 12.931 24.6552C16.1207 27.931 19.6552 27.7586 19.6552 27.7586Z" fill="#E20613"/>
</svg>
