<svg width="40" height="40" viewBox="0 0 40 40" fill="none" xmlns="http://www.w3.org/2000/svg">
<circle cx="20.5" cy="21.5" r="13.5" fill="white"/>
<path fill-rule="evenodd" clip-rule="evenodd" d="M20 0C8.95436 0 0 8.95436 0 20C0 31.0456 8.95436 40 20 40C31.0456 40 40 31.0456 40 20C40 8.95436 31.0456 0 20 0ZM30 20.7544C30 22.3732 29.8 23.9919 29.8 23.9919C29.8 23.9919 29.6054 25.3691 29.0054 25.9772C28.2456 26.7732 27.3933 26.7772 27.0013 26.8228C24.2027 27.0255 20 27.0322 20 27.0322C20 27.0322 14.8 26.9852 13.2 26.8322C12.7544 26.749 11.7544 26.7732 10.9946 25.9772C10.3946 25.3691 10.2 23.9919 10.2 23.9919C10.2 23.9919 10 22.3732 10 20.7544V19.2362C10 17.6174 10.2 16 10.2 16C10.2 16 10.3946 14.6215 10.9946 14.0134C11.7544 13.2175 12.6067 13.2134 12.9987 13.1678C15.7973 12.9651 19.996 12.9651 19.996 12.9651H20.004C20.004 12.9651 24.2027 12.9651 27.0013 13.1678C27.3919 13.2134 28.2456 13.2175 29.0054 14.0134C29.6054 14.6215 29.8 16 29.8 16C29.8 16 30 17.6174 30 19.2362V20.7544Z" fill="#E20613"/>
<path fill-rule="evenodd" clip-rule="evenodd" d="M17.9349 22.5933L23.339 19.7933L17.9336 16.9731L17.9349 22.5933Z" fill="#E20613"/>
</svg>
