<svg width="20" height="20" viewBox="0 0 20 20" fill="none" xmlns="http://www.w3.org/2000/svg">
<path d="M1.98817 9.90223H1.98828L1.98806 9.89181C1.89628 5.48619 5.4758 1.89136 9.99904 1.89136C14.4185 1.89136 18.0099 5.48272 18.0099 9.90223C18.0099 14.3217 14.4185 17.9131 9.99904 17.9131C5.57953 17.9131 1.98817 14.3217 1.98817 9.90223Z" fill="white" stroke="#E20613"/>
<path d="M10 1C14.9891 1 19 5.01087 19 10C19 14.9891 14.9891 19 10 19C5.01087 19 1 14.9891 1 10C1 5.01087 5.01087 1 10 1Z" stroke="#E20613" stroke-width="2.0001" stroke-miterlimit="22.9256"/>
<path d="M5.00977 8.826L9.9989 11.5651L14.3032 6.67383" stroke="#E20613" stroke-width="0.5669" stroke-miterlimit="22.9256"/>
</svg>
