<svg width="14" height="23" viewBox="0 0 14 23" fill="none" xmlns="http://www.w3.org/2000/svg">
<path fill-rule="evenodd" clip-rule="evenodd" d="M2.04657 1.50659H11.8909C12.5731 1.50659 13.0605 2.00878 13.0605 2.71183V20.8909C13.0605 21.5939 12.5731 22.0961 11.8909 22.0961H2.04657C1.36429 22.0961 0.876953 21.5939 0.876953 20.8909V2.71183C0.876953 2.10921 1.46176 1.50659 2.04657 1.50659Z" fill="white"/>
<path d="M12.3785 17.8777C12.3785 18.6812 11.7937 19.2838 11.0139 19.2838H3.02151C2.24177 19.2838 1.65696 18.6812 1.65696 17.8777V3.91703C1.65696 3.11354 2.24177 2.51092 3.02151 2.51092H11.0139C11.7937 2.51092 12.3785 3.11354 12.3785 3.91703V17.8777ZM7.01771 21.5939C6.72531 21.5939 6.4329 21.2926 6.4329 20.9913C6.4329 20.69 6.72531 20.3886 7.01771 20.3886C7.31011 20.3886 7.60252 20.69 7.60252 20.9913C7.60252 21.2926 7.40758 21.5939 7.01771 21.5939ZM13.4506 0.60262C13.0607 0.200873 12.4759 0 11.9886 0H2.1443C0.974682 0 0 1.00437 0 2.20961V20.8908C0 21.4935 0.194936 21.9956 0.584809 22.3974C0.974682 22.7991 1.55949 23 2.04683 23H11.8911C12.4759 23 12.9633 22.7991 13.3531 22.3974C13.743 21.9956 13.938 21.393 13.938 20.8908V2.20961C14.1329 1.60699 13.8405 1.00437 13.4506 0.60262Z" fill="#E20613"/>
</svg>
