<svg width="40" height="40" viewBox="0 0 40 40" fill="none" xmlns="http://www.w3.org/2000/svg">
<circle cx="20" cy="20" r="20" fill="#E20613"/>
<path d="M33.3489 15.9619H30.3763V18.9203H27.418V21.8928H30.3763V24.8512H33.3489V21.8928H36.3073V18.9203H33.3489V15.9619Z" fill="white"/>
<path d="M13.8831 30.2318C19.7648 30.2318 23.6721 26.1035 23.6721 20.2765C23.6721 19.6089 23.6031 19.0945 23.5068 18.5801H13.8853V22.0835H19.6707C19.4343 23.5719 17.9184 26.4767 13.8853 26.4767C10.4104 26.4767 7.5724 23.5982 7.5724 20.039C7.5724 16.4798 10.4082 13.6002 13.8853 13.6002C15.874 13.6002 17.1939 14.4484 17.9458 15.1708L20.7126 12.5156C18.9308 10.8476 16.6368 9.84619 13.8842 9.84619C8.25206 9.84729 3.69141 14.4079 3.69141 20.039C3.69141 25.67 8.25207 30.2318 13.8831 30.2318Z" fill="white"/>
</svg>
