<svg width="17" height="26" viewBox="0 0 17 26" fill="none" xmlns="http://www.w3.org/2000/svg">
<path fill-rule="evenodd" clip-rule="evenodd" d="M8.50005 3.54565C11.8796 3.54565 14.6446 6.20475 14.6446 9.45475C14.6446 12.7047 11.8796 15.3638 8.50005 15.3638C5.12053 15.3638 2.35547 12.7047 2.35547 9.45475C2.35547 6.20475 5.12053 3.54565 8.50005 3.54565Z" fill="white"/>
<path fill-rule="evenodd" clip-rule="evenodd" d="M8.5 0C13.2108 0 17 3.64394 17 8.17424C17 9.25758 16.7952 10.3409 16.3855 11.3258L16.1807 11.6212C16.0783 11.8182 15.9759 12.0152 15.8735 12.3106L8.5 26L1.12651 12.3106C1.0241 12.1136 0.921687 11.9167 0.819277 11.6212L0.614458 11.3258C0.204819 10.3409 0 9.35606 0 8.17424C0 3.64394 3.78916 0 8.5 0ZM8.5 3.93939C6.04217 3.93939 3.99398 5.90909 3.99398 8.27273C3.99398 10.6364 6.04217 12.6061 8.5 12.6061C10.9578 12.6061 13.006 10.6364 13.006 8.27273C13.006 5.90909 10.9578 3.93939 8.5 3.93939Z" fill="#E20613"/>
</svg>
