<svg width="25" height="28" viewBox="0 0 25 28" fill="none" xmlns="http://www.w3.org/2000/svg">
<path d="M23.6516 21.0653C23.6516 21.0653 22.1516 19.6315 21.4516 19.0801C20.7516 18.5286 19.6516 17.7566 19.0516 17.4258C17.9516 16.764 16.8516 17.2052 16.4516 17.8669L15.5516 19.1904C15.1031 19.7839 14.4938 19.7563 14.2286 19.7443C14.1982 19.743 14.1722 19.7418 14.1516 19.7418C12.7516 19.4109 11.2516 18.4184 9.75161 16.764C8.25161 15.1097 7.25161 13.4554 6.95161 11.5805V11.4702C6.85161 10.6982 6.95161 10.3674 7.25161 9.92621H7.35161C7.54471 9.71325 7.79995 9.48887 8.064 9.25674C8.62042 8.76758 9.21598 8.24402 9.35161 7.72046C9.75239 6.65964 8.48268 4.67765 7.85997 3.70561C7.70581 3.46497 7.5913 3.28622 7.55161 3.19868C7.55161 3.19868 6.05161 1.10321 5.55161 0.662062C4.95162 0.110625 4.15162 -0.10995 3.25162 0.441488C0.751619 2.31638 -0.24838 3.41925 0.0516198 5.07356L0.15162 5.73529C1.45162 10.2571 3.95162 14.9994 7.65161 19.1904C11.3516 23.3813 15.2516 25.9179 19.1516 27.5722C20.1516 27.9031 21.2516 27.5722 22.2516 26.5796C23.0516 25.6973 23.7516 24.815 24.2516 23.8224C24.5516 22.7196 24.3516 21.727 23.6516 21.0653Z" fill="#E20613"/>
<path d="M23.6516 21.0653C23.6516 21.0653 22.1516 19.6315 21.4516 19.0801C20.7516 18.5286 19.6516 17.7566 19.0516 17.4258C17.9516 16.764 16.8516 17.2052 16.4516 17.8669L15.5516 19.1904C15.1031 19.7839 14.4938 19.7563 14.2286 19.7443C14.1982 19.743 14.1722 19.7418 14.1516 19.7418C12.7516 19.4109 11.2516 18.4184 9.75161 16.764C8.25161 15.1097 7.25161 13.4554 6.95161 11.5805V11.4702C6.85161 10.6982 6.95161 10.3674 7.25161 9.92621H7.35161C7.54471 9.71325 7.79995 9.48887 8.064 9.25674C8.62042 8.76758 9.21598 8.24402 9.35161 7.72046C9.75239 6.65964 8.48268 4.67765 7.85997 3.70561C7.70581 3.46497 7.5913 3.28622 7.55161 3.19868C7.55161 3.19868 6.05161 1.10321 5.55161 0.662062C4.95162 0.110625 4.15162 -0.10995 3.25162 0.441488C0.751619 2.31638 -0.24838 3.41925 0.0516198 5.07356L0.15162 5.73529C1.45162 10.2571 3.95162 14.9994 7.65161 19.1904C11.3516 23.3813 15.2516 25.9179 19.1516 27.5722C20.1516 27.9031 21.2516 27.5722 22.2516 26.5796C23.0516 25.6973 23.7516 24.815 24.2516 23.8224C24.5516 22.7196 24.3516 21.727 23.6516 21.0653Z" stroke="#E20613"/>
<path d="M17.6508 11.3599C17.4508 11.3599 17.3508 11.2496 17.3508 11.029C17.2508 9.92605 17.0508 8.93341 16.5508 8.38194C16.0508 7.83047 15.2508 7.49959 14.3508 7.3893C14.1508 7.3893 14.0508 7.16871 14.0508 7.05842C14.0508 6.83783 14.1508 6.72754 14.3508 6.72754C15.4508 6.83783 16.3508 7.16871 16.9508 7.94077C17.5508 8.60253 17.8508 9.70546 17.9508 11.029C17.9508 11.1393 17.7508 11.2496 17.6508 11.3599Z" fill="#E20613"/>
<path d="M20.4531 12.3535C20.2531 12.3535 20.1531 12.2432 20.1531 12.0226C20.1531 9.81651 19.6531 7.94134 18.3531 6.39707C17.7531 5.62494 17.0531 5.07342 16.1531 4.6322C15.3531 4.19098 14.3531 3.97037 13.2531 3.86007C13.0531 3.86007 12.9531 3.63946 12.9531 3.52916C12.9531 3.30855 13.1531 3.19824 13.2531 3.19824C15.5531 3.41885 17.4531 4.30129 18.7531 5.95585C20.0531 7.61042 20.7531 9.5959 20.6531 12.0226C20.7531 12.2432 20.6531 12.3535 20.4531 12.3535Z" fill="#E20613"/>
<path d="M23.4524 13.6753C23.2523 13.6753 23.1523 13.565 23.1523 13.3444C23.1523 11.3593 22.8523 9.59476 22.3523 8.05078C21.8523 6.50679 21.0523 5.18338 20.0523 4.08053C19.0523 2.97769 17.8523 2.09541 16.6523 1.54399C15.3523 0.992562 13.9523 0.661708 12.4523 0.661708C12.2523 0.661708 12.1523 0.551423 12.1523 0.330854C12.1523 0.110285 12.2523 0 12.4523 0C15.6523 0 18.3523 1.21313 20.5523 3.63939C21.6523 4.85252 22.4523 6.28622 22.9523 7.83021C23.4524 9.48448 23.7523 11.249 23.7523 13.3444C23.7523 13.565 23.6524 13.6753 23.4524 13.6753Z" fill="#E20613"/>
</svg>
