<svg width="31" height="22" viewBox="0 0 31 22" fill="none" xmlns="http://www.w3.org/2000/svg">
<path d="M9.99274 0.731635C10.4145 0.303159 11.0784 0.303159 11.5002 0.731635C11.9077 1.14564 11.9077 1.83467 11.5002 2.24771L3.85664 10.0134H29.0792C29.6672 10.0134 30.1497 10.4882 30.1497 11.0855C30.1497 11.6829 29.6672 12.1731 29.0792 12.1731H3.85664L11.5002 19.9243C11.9077 20.3528 11.9077 21.0428 11.5002 21.4558C11.0784 21.8843 10.4145 21.8843 9.99274 21.4558L0.53973 11.8518C0.13224 11.4378 0.13224 10.7487 0.53973 10.3357L9.99274 0.731635Z" fill="url(#paint0_linear_2_1318)"/>
<defs>
<linearGradient id="paint0_linear_2_1318" x1="15.1919" y1="0.410278" x2="15.1919" y2="21.7772" gradientUnits="userSpaceOnUse">
<stop stop-color="#FF5353"/>
<stop offset="1" stop-color="#FF7B7B"/>
</linearGradient>
</defs>
</svg>
