<svg width="31" height="22" viewBox="0 0 31 22" fill="none" xmlns="http://www.w3.org/2000/svg">
<path d="M21.0073 0.731635C20.5856 0.303159 19.9216 0.303159 19.4999 0.731635C19.0924 1.14564 19.0924 1.83467 19.4999 2.24771L27.1434 10.0134H1.92083C1.33287 10.0134 0.850342 10.4882 0.850342 11.0855C0.850342 11.6829 1.33287 12.1731 1.92083 12.1731H27.1434L19.4999 19.9243C19.0924 20.3528 19.0924 21.0428 19.4999 21.4558C19.9216 21.8843 20.5856 21.8843 21.0073 21.4558L30.4603 11.8518C30.8678 11.4378 30.8678 10.7487 30.4603 10.3357L21.0073 0.731635Z" fill="url(#paint0_linear_2_1321)"/>
<defs>
<linearGradient id="paint0_linear_2_1321" x1="15.8081" y1="0.410278" x2="15.8081" y2="21.7772" gradientUnits="userSpaceOnUse">
<stop stop-color="#FF5353"/>
<stop offset="1" stop-color="#FF7B7B"/>
</linearGradient>
</defs>
</svg>
